<?xml version="1.0" encoding="UTF-8"?>
<svg xmlns="http://www.w3.org/2000/svg" xmlns:xlink="http://www.w3.org/1999/xlink" width="24px" height="24px" viewBox="0 0 24 24" version="1.1">
<g id="surface1">
<path style=" stroke:none;fill-rule:nonzero;fill:rgb(68.627451%,28.235294%,100%);fill-opacity:1;" d="M 16.042969 23.816406 L 9.457031 23.816406 C 8.894531 23.816406 8.429688 23.359375 8.425781 22.792969 L 8.425781 22.566406 C 8.421875 22.191406 8.417969 21.746094 8.414062 21.269531 C 4.503906 21.847656 3.40625 19.324219 3.289062 19.027344 C 2.691406 17.507812 1.859375 17.070312 1.851562 17.066406 L 1.785156 17.027344 C 1.488281 16.828125 0.800781 16.355469 0.996094 15.738281 C 1.171875 15.1875 1.894531 15.136719 2.191406 15.136719 L 2.222656 15.140625 C 4.023438 15.265625 4.953125 16.917969 4.992188 16.988281 C 6 18.714844 7.542969 18.507812 8.515625 18.140625 C 8.609375 17.664062 8.765625 17.230469 8.976562 16.859375 C 5.945312 16.347656 2.457031 14.785156 2.457031 8.902344 C 2.457031 7.296875 2.964844 5.878906 3.960938 4.679688 C 3.742188 3.972656 3.464844 2.464844 4.21875 0.550781 L 4.3125 0.320312 L 4.546875 0.242188 C 4.703125 0.195312 6.101562 -0.167969 9.011719 1.742188 C 10.195312 1.4375 11.453125 1.277344 12.746094 1.273438 C 14.046875 1.277344 15.300781 1.4375 16.488281 1.742188 C 19.398438 -0.167969 20.796875 0.195312 20.949219 0.242188 L 21.183594 0.320312 L 21.277344 0.550781 C 22.03125 2.464844 21.757812 3.972656 21.535156 4.679688 C 22.535156 5.875 23.039062 7.292969 23.039062 8.902344 C 23.039062 14.785156 19.546875 16.34375 16.507812 16.847656 C 16.882812 17.503906 17.089844 18.347656 17.089844 19.289062 C 17.089844 20.65625 17.082031 21.84375 17.074219 22.632812 L 17.074219 22.792969 C 17.070312 23.355469 16.605469 23.816406 16.042969 23.816406 Z M 9.476562 22.765625 L 16.023438 22.765625 L 16.023438 22.625 C 16.03125 21.839844 16.039062 20.652344 16.039062 19.289062 C 16.039062 17.757812 15.4375 17.074219 15.179688 16.851562 L 14.273438 16.066406 L 15.464844 15.933594 C 18.691406 15.574219 21.988281 14.457031 21.988281 8.902344 C 21.988281 7.453125 21.503906 6.191406 20.550781 5.148438 L 20.324219 4.902344 L 20.453125 4.59375 C 20.558594 4.339844 21.023438 3.039062 20.410156 1.234375 C 19.960938 1.246094 18.820312 1.429688 16.878906 2.746094 L 16.675781 2.882812 L 16.441406 2.820312 C 15.292969 2.5 14.015625 2.328125 12.746094 2.324219 C 11.484375 2.328125 10.207031 2.5 9.058594 2.820312 L 8.824219 2.882812 L 8.625 2.75 C 6.6875 1.4375 5.546875 1.246094 5.085938 1.234375 C 4.476562 3.039062 4.941406 4.339844 5.046875 4.59375 L 5.171875 4.902344 L 4.949219 5.148438 C 3.992188 6.195312 3.507812 7.457031 3.507812 8.902344 C 3.507812 14.457031 6.796875 15.578125 10.015625 15.945312 L 11.199219 16.078125 L 10.300781 16.863281 C 10.066406 17.070312 9.644531 17.570312 9.503906 18.585938 L 9.464844 18.875 L 9.199219 18.992188 C 8.40625 19.347656 5.699219 20.289062 4.078125 17.507812 C 4.066406 17.488281 3.515625 16.527344 2.535156 16.253906 C 2.921875 16.515625 3.695312 17.183594 4.269531 18.640625 L 4.277344 18.671875 C 4.308594 18.757812 5.117188 20.933594 8.824219 20.125 L 9.457031 19.988281 L 9.460938 20.636719 C 9.464844 21.34375 9.46875 22.023438 9.476562 22.554688 Z M 9.476562 22.765625 "/>
</g>
</svg>
