<?xml version="1.0" encoding="UTF-8"?>
<svg xmlns="http://www.w3.org/2000/svg" xmlns:xlink="http://www.w3.org/1999/xlink" width="24px" height="24px" viewBox="0 0 24 24" version="1.1">
<g id="surface1">
<path style=" stroke:none;fill-rule:nonzero;fill:rgb(68.627451%,28.235294%,100%);fill-opacity:1;" d="M 6.375 23.796875 L 0.554688 23.796875 L 0.554688 7.652344 L 6.375 7.652344 Z M 1.714844 22.632812 L 5.210938 22.632812 L 5.210938 8.8125 L 1.714844 8.8125 Z M 3.464844 6.765625 C 1.65625 6.765625 0.183594 5.296875 0.183594 3.484375 C 0.183594 1.675781 1.65625 0.203125 3.464844 0.203125 C 5.273438 0.203125 6.742188 1.675781 6.742188 3.484375 C 6.742188 5.296875 5.273438 6.765625 3.464844 6.765625 Z M 3.464844 1.367188 C 2.296875 1.367188 1.347656 2.316406 1.347656 3.484375 C 1.347656 4.652344 2.296875 5.605469 3.464844 5.605469 C 4.632812 5.605469 5.582031 4.65625 5.582031 3.484375 C 5.582031 2.316406 4.632812 1.367188 3.464844 1.367188 Z M 3.464844 1.367188 "/>
<path style=" stroke:none;fill-rule:nonzero;fill:rgb(68.627451%,28.235294%,100%);fill-opacity:1;" d="M 23.816406 23.796875 L 18 23.796875 L 18 15.929688 C 18 13.632812 17.722656 12.539062 16.160156 12.539062 C 14.546875 12.539062 13.949219 13.421875 13.949219 15.804688 L 13.949219 23.796875 L 8.132812 23.796875 L 8.132812 7.652344 L 13.761719 7.652344 L 13.761719 8.714844 C 14.648438 7.917969 15.957031 7.28125 17.648438 7.28125 C 23.082031 7.28125 23.816406 11.179688 23.816406 14.996094 Z M 19.160156 22.632812 L 22.652344 22.632812 L 22.652344 14.996094 C 22.652344 10.949219 21.816406 8.441406 17.648438 8.441406 C 15.597656 8.441406 14.269531 9.578125 13.757812 10.550781 L 13.59375 10.863281 L 12.597656 10.863281 L 12.597656 8.8125 L 9.292969 8.8125 L 9.292969 22.632812 L 12.785156 22.632812 L 12.785156 15.804688 C 12.785156 14.59375 12.785156 11.375 16.160156 11.375 C 19.160156 11.375 19.160156 14.335938 19.160156 15.929688 Z M 19.160156 22.632812 "/>
</g>
</svg>
