<?xml version="1.0" encoding="UTF-8"?>
<svg xmlns="http://www.w3.org/2000/svg" xmlns:xlink="http://www.w3.org/1999/xlink" width="24px" height="24px" viewBox="0 0 24 24" version="1.1">
<g id="surface1">
<path style=" stroke:none;fill-rule:nonzero;fill:rgb(68.627451%,28.235294%,100%);fill-opacity:1;" d="M 21.421875 20.867188 L 2.578125 20.867188 C 1.257812 20.867188 0.183594 19.792969 0.183594 18.476562 L 0.183594 5.523438 C 0.183594 4.207031 1.257812 3.132812 2.578125 3.132812 L 21.421875 3.132812 C 22.742188 3.132812 23.816406 4.207031 23.816406 5.523438 L 23.816406 18.476562 C 23.816406 19.792969 22.742188 20.867188 21.421875 20.867188 Z M 2.578125 4.707031 C 2.125 4.707031 1.757812 5.074219 1.757812 5.523438 L 1.757812 18.476562 C 1.757812 18.925781 2.125 19.292969 2.578125 19.292969 L 21.421875 19.292969 C 21.875 19.292969 22.242188 18.925781 22.242188 18.476562 L 22.242188 5.523438 C 22.242188 5.074219 21.875 4.707031 21.421875 4.707031 Z M 2.578125 4.707031 "/>
<path style=" stroke:none;fill-rule:nonzero;fill:rgb(68.627451%,28.235294%,100%);fill-opacity:1;" d="M 12 14.738281 C 10.578125 14.738281 9.21875 14.136719 8.261719 13.085938 L 0.839844 4.941406 L 2.003906 3.882812 L 9.425781 12.023438 C 10.09375 12.757812 11.007812 13.164062 12 13.164062 C 12.992188 13.164062 13.90625 12.757812 14.574219 12.023438 L 21.996094 3.882812 L 23.160156 4.941406 L 15.738281 13.085938 C 14.78125 14.136719 13.421875 14.738281 12 14.738281 Z M 12 14.738281 "/>
<path style=" stroke:none;fill-rule:nonzero;fill:rgb(68.627451%,28.235294%,100%);fill-opacity:1;" d="M 0.882812 19.050781 L 8.101562 11.796875 L 9.21875 12.90625 L 2 20.164062 Z M 0.882812 19.050781 "/>
<path style=" stroke:none;fill-rule:nonzero;fill:rgb(68.627451%,28.235294%,100%);fill-opacity:1;" d="M 14.785156 12.90625 L 15.902344 11.796875 L 23.121094 19.054688 L 22.003906 20.164062 Z M 14.785156 12.90625 "/>
</g>
</svg>
