<?xml version="1.0" encoding="UTF-8"?>
<svg xmlns="http://www.w3.org/2000/svg" xmlns:xlink="http://www.w3.org/1999/xlink" width="80px" height="29px" viewBox="0 0 80 29" version="1.1">
<g id="surface1">
<path style=" stroke:none;fill-rule:nonzero;fill:rgb(0%,0%,0%);fill-opacity:1;" d="M 39.847656 8.964844 L 43.648438 8.726562 C 43.734375 9.347656 43.902344 9.824219 44.152344 10.148438 C 44.566406 10.675781 45.15625 10.941406 45.917969 10.941406 C 46.488281 10.941406 46.929688 10.804688 47.238281 10.535156 C 47.527344 10.308594 47.695312 9.964844 47.703125 9.597656 C 47.695312 9.246094 47.539062 8.914062 47.269531 8.691406 C 46.976562 8.425781 46.296875 8.171875 45.21875 7.933594 C 43.464844 7.539062 42.214844 7.007812 41.46875 6.351562 C 40.730469 5.730469 40.316406 4.804688 40.335938 3.835938 C 40.339844 3.160156 40.542969 2.5 40.917969 1.941406 C 41.34375 1.308594 41.949219 0.820312 42.652344 0.535156 C 43.425781 0.195312 44.484375 0.0234375 45.835938 0.0234375 C 47.488281 0.0234375 48.75 0.332031 49.621094 0.953125 C 50.488281 1.574219 51.003906 2.558594 51.167969 3.910156 L 47.398438 4.128906 C 47.304688 3.546875 47.09375 3.121094 46.769531 2.851562 C 46.445312 2.582031 46 2.445312 45.4375 2.445312 C 44.972656 2.445312 44.621094 2.546875 44.386719 2.746094 C 44.164062 2.917969 44.03125 3.191406 44.035156 3.476562 C 44.042969 3.695312 44.148438 3.902344 44.324219 4.035156 C 44.511719 4.207031 44.960938 4.367188 45.664062 4.515625 C 47.414062 4.894531 48.667969 5.277344 49.429688 5.667969 C 50.1875 6.054688 50.738281 6.539062 51.078125 7.113281 C 51.425781 7.695312 51.601562 8.363281 51.59375 9.042969 C 51.597656 9.863281 51.359375 10.667969 50.90625 11.355469 C 50.4375 12.066406 49.765625 12.625 48.984375 12.957031 C 48.15625 13.320312 47.117188 13.503906 45.867188 13.503906 C 43.664062 13.503906 42.140625 13.078125 41.292969 12.222656 C 40.445312 11.371094 39.960938 10.285156 39.847656 8.964844 Z M 0.90625 13.285156 L 0.90625 0.242188 L 7.574219 0.242188 C 8.808594 0.242188 9.753906 0.347656 10.40625 0.5625 C 11.050781 0.769531 11.605469 1.1875 11.984375 1.75 C 12.398438 2.371094 12.609375 3.109375 12.589844 3.859375 C 12.605469 4.515625 12.445312 5.164062 12.125 5.734375 C 11.820312 6.261719 11.386719 6.703125 10.863281 7.015625 C 10.425781 7.261719 9.949219 7.433594 9.460938 7.53125 C 9.828125 7.640625 10.175781 7.804688 10.5 8.011719 C 10.738281 8.214844 10.953125 8.441406 11.140625 8.691406 C 11.351562 8.941406 11.539062 9.210938 11.699219 9.496094 L 13.636719 13.285156 L 9.117188 13.285156 L 6.980469 9.296875 C 6.710938 8.78125 6.46875 8.445312 6.257812 8.289062 C 5.96875 8.089844 5.625 7.984375 5.277344 7.988281 L 4.921875 7.988281 L 4.921875 13.285156 Z M 4.921875 5.523438 L 6.609375 5.523438 C 6.96875 5.496094 7.324219 5.4375 7.667969 5.347656 C 7.929688 5.296875 8.160156 5.148438 8.316406 4.9375 C 8.484375 4.722656 8.574219 4.453125 8.570312 4.183594 C 8.589844 3.8125 8.445312 3.457031 8.171875 3.210938 C 7.90625 2.988281 7.410156 2.875 6.679688 2.875 L 4.921875 2.875 Z M 0 24.445312 L 3.804688 24.207031 C 3.886719 24.828125 4.054688 25.304688 4.308594 25.628906 C 4.714844 26.15625 5.304688 26.421875 6.078125 26.421875 C 6.648438 26.421875 7.085938 26.285156 7.398438 26.015625 C 7.683594 25.789062 7.855469 25.445312 7.859375 25.078125 C 7.855469 24.722656 7.695312 24.394531 7.425781 24.167969 C 7.136719 23.902344 6.453125 23.652344 5.378906 23.414062 C 3.625 23.015625 2.375 22.488281 1.625 21.832031 C 0.890625 21.207031 0.472656 20.28125 0.496094 19.3125 C 0.5 18.636719 0.699219 17.980469 1.074219 17.417969 C 1.503906 16.789062 2.105469 16.296875 2.8125 16.015625 C 3.582031 15.671875 4.644531 15.503906 5.996094 15.503906 C 7.648438 15.503906 8.910156 15.8125 9.777344 16.433594 C 10.644531 17.050781 11.164062 18.039062 11.328125 19.386719 L 7.566406 19.613281 C 7.46875 19.027344 7.257812 18.601562 6.933594 18.328125 C 6.609375 18.058594 6.167969 17.925781 5.605469 17.929688 C 5.140625 17.929688 4.789062 18.027344 4.554688 18.222656 C 4.332031 18.394531 4.199219 18.664062 4.203125 18.949219 C 4.207031 19.171875 4.316406 19.378906 4.492188 19.511719 C 4.679688 19.683594 5.125 19.84375 5.832031 19.992188 C 7.582031 20.371094 8.835938 20.753906 9.59375 21.144531 C 10.355469 21.53125 10.90625 22.011719 11.246094 22.589844 C 11.589844 23.171875 11.769531 23.839844 11.761719 24.519531 C 11.765625 25.339844 11.527344 26.144531 11.074219 26.828125 C 10.605469 27.542969 9.933594 28.101562 9.148438 28.433594 C 8.324219 28.796875 7.285156 28.980469 6.03125 28.980469 C 3.832031 28.980469 2.308594 28.554688 1.460938 27.699219 C 0.613281 26.847656 0.125 25.761719 0 24.445312 Z M 23.585938 23.421875 L 27.089844 24.488281 C 26.898438 25.386719 26.519531 26.230469 25.980469 26.96875 C 25.488281 27.621094 24.839844 28.136719 24.097656 28.472656 C 23.347656 28.808594 22.390625 28.976562 21.234375 28.976562 C 19.824219 28.976562 18.675781 28.769531 17.785156 28.359375 C 16.894531 27.949219 16.121094 27.226562 15.46875 26.1875 C 14.820312 25.148438 14.5 23.824219 14.5 22.207031 C 14.5 20.050781 15.070312 18.394531 16.207031 17.234375 C 17.34375 16.074219 18.957031 15.496094 21.039062 15.496094 C 22.671875 15.496094 23.953125 15.828125 24.886719 16.492188 C 25.816406 17.15625 26.507812 18.179688 26.960938 19.554688 L 23.433594 20.347656 C 23.347656 20.035156 23.21875 19.742188 23.042969 19.472656 C 22.832031 19.171875 22.550781 18.929688 22.222656 18.761719 C 21.886719 18.589844 21.515625 18.503906 21.136719 18.511719 C 20.230469 18.511719 19.535156 18.878906 19.054688 19.613281 C 18.6875 20.15625 18.503906 21.011719 18.507812 22.179688 C 18.507812 23.625 18.722656 24.613281 19.160156 25.152344 C 19.597656 25.6875 20.207031 25.953125 20.996094 25.953125 C 21.761719 25.953125 22.339844 25.738281 22.734375 25.304688 C 23.125 24.871094 23.410156 24.246094 23.585938 23.421875 Z M 30.171875 15.722656 L 34.171875 15.722656 L 34.171875 20.28125 L 38.539062 20.28125 L 38.539062 15.722656 L 42.554688 15.722656 L 42.554688 28.757812 L 38.539062 28.757812 L 38.539062 23.488281 L 34.171875 23.488281 L 34.171875 28.761719 L 30.171875 28.761719 Z M 45.046875 22.25 C 45.046875 20.121094 45.632812 18.464844 46.808594 17.277344 C 47.988281 16.089844 49.628906 15.496094 51.730469 15.5 C 53.882812 15.5 55.542969 16.082031 56.707031 17.25 C 57.875 18.414062 58.457031 20.046875 58.460938 22.140625 C 58.460938 23.667969 58.207031 24.917969 57.695312 25.890625 C 57.199219 26.851562 56.433594 27.644531 55.488281 28.167969 C 54.523438 28.707031 53.324219 28.980469 51.890625 28.980469 C 50.433594 28.980469 49.226562 28.746094 48.273438 28.277344 C 47.296875 27.789062 46.484375 27.015625 45.949219 26.054688 C 45.34375 25.042969 45.042969 23.773438 45.046875 22.25 Z M 49.042969 22.265625 C 49.042969 23.585938 49.285156 24.53125 49.765625 25.105469 C 50.25 25.679688 50.910156 25.964844 51.75 25.964844 C 52.609375 25.964844 53.273438 25.683594 53.746094 25.121094 C 54.214844 24.558594 54.449219 23.546875 54.449219 22.089844 C 54.449219 20.863281 54.203125 19.964844 53.714844 19.398438 C 53.222656 18.832031 52.554688 18.550781 51.714844 18.550781 C 50.972656 18.523438 50.257812 18.839844 49.777344 19.40625 C 49.289062 19.992188 49.042969 20.945312 49.042969 22.265625 Z M 49.042969 22.265625 "/>
<path style=" stroke:none;fill-rule:nonzero;fill:rgb(0%,0%,0%);fill-opacity:1;" d="M 56.765625 22.25 C 56.765625 20.121094 57.351562 18.464844 58.53125 17.277344 C 59.707031 16.089844 61.347656 15.496094 63.449219 15.5 C 65.605469 15.5 67.265625 16.082031 68.429688 17.25 C 69.59375 18.414062 70.175781 20.046875 70.175781 22.144531 C 70.175781 23.667969 69.921875 24.917969 69.414062 25.890625 C 68.917969 26.855469 68.148438 27.644531 67.207031 28.167969 C 66.242188 28.710938 65.042969 28.980469 63.609375 28.980469 C 62.148438 28.980469 60.945312 28.746094 59.992188 28.277344 C 59.011719 27.789062 58.203125 27.015625 57.664062 26.054688 C 57.066406 25.042969 56.765625 23.773438 56.765625 22.25 Z M 60.765625 22.265625 C 60.765625 23.585938 61.003906 24.53125 61.488281 25.105469 C 61.96875 25.679688 62.632812 25.964844 63.472656 25.96875 C 64.332031 25.96875 64.996094 25.683594 65.46875 25.121094 C 65.941406 24.558594 66.175781 23.550781 66.175781 22.089844 C 66.175781 20.863281 65.929688 19.964844 65.4375 19.398438 C 64.949219 18.832031 64.28125 18.550781 63.4375 18.550781 C 62.695312 18.523438 61.980469 18.839844 61.5 19.40625 C 61.007812 19.992188 60.761719 20.945312 60.765625 22.265625 Z M 60.765625 22.265625 "/>
<path style=" stroke:none;fill-rule:nonzero;fill:rgb(0%,0%,0%);fill-opacity:1;" d="M 69.757812 15.722656 L 73.757812 15.722656 L 73.757812 25.546875 L 80 25.546875 L 80 28.753906 L 69.757812 28.753906 Z M 69.757812 15.722656 "/>
</g>
</svg>
